<?xml version="1.0" encoding="utf-8"?>
<!-- Generator: Adobe Illustrator 18.0.0, SVG Export Plug-In . SVG Version: 6.00 Build 0)  -->
<!DOCTYPE svg PUBLIC "-//W3C//DTD SVG 1.1//EN" "http://www.w3.org/Graphics/SVG/1.1/DTD/svg11.dtd">
<svg version="1.1" id="Capa_1" xmlns="http://www.w3.org/2000/svg" xmlns:xlink="http://www.w3.org/1999/xlink" x="0px" y="0px"
	 viewBox="231 321 150 150" enable-background="new 231 321 150 150" xml:space="preserve">
<g>
	<path d="M340.2,363.2c-10.5-17.3-22.1-32.1-28-39.5c-0.8-1-2-1.6-3.3-1.6c-1.3,0-2.5,0.6-3.3,1.6c-6,7.4-17.7,22.3-28,39.5
		c-13.4,22.3-20.3,40.6-20.3,54.6c0,28.4,23.2,51.6,51.6,51.6c28.5,0,51.6-23.2,51.6-51.6C360.5,403.7,353.7,385.3,340.2,363.2z
		 M315.9,450.4c-3.1,0.7-6.1,1.1-9.3,1.1c-19.4,0-35-14.5-35-32.5c0-4.3,1.1-9.3,3.4-15c0.4-1,1.4-1.6,2.5-1.3
		c1,0.2,1.9,1.1,1.6,2.2c-0.1,1.2-0.2,2.5-0.2,3.6c0,19.5,15.6,35.8,36.6,38.1c1,0.1,1.9,0.9,1.9,1.9
		C317.6,449.2,316.9,450.1,315.9,450.4z"/>
</g>
</svg>
