<?xml version="1.0" encoding="utf-8"?>
<!-- Generator: Adobe Illustrator 18.0.0, SVG Export Plug-In . SVG Version: 6.00 Build 0)  -->
<!DOCTYPE svg PUBLIC "-//W3C//DTD SVG 1.1//EN" "http://www.w3.org/Graphics/SVG/1.1/DTD/svg11.dtd">
<svg version="1.1" id="Layer_1" xmlns="http://www.w3.org/2000/svg" xmlns:xlink="http://www.w3.org/1999/xlink" x="0px" y="0px"
	 viewBox="231.1 321.1 150 150" enable-background="new 231.1 321.1 150 150" xml:space="preserve">
<g>
	<g>
		<title>Layer 1</title>
		<g id="layer3_1_">
			<g id="g3883_1_">
				<path id="path3686_1_" d="M349.7,331.7c-0.9-0.2-0.6-1.1-0.5-1.9l3.7-5.5c1.3-2,2.2-1.7,3,0.1c0.8,1.7-0.3,3-1.4,4.3
					C353.4,329.9,351.2,332,349.7,331.7z"/>
				<path id="path3686-3_1_" d="M283.1,447.2c-1.2,2.7-2,5.7-2.3,7.8c-0.4,2.2-2,1.9-3,0.2c-1-1.7-0.1-3,0.9-4.4
					C279.6,449.4,281.6,447,283.1,447.2z"/>
				<path id="path3686-3-7_1_" d="M269.3,459.7c-1.3,2.4-3,4.6-4.4,6.2c-1.5,1.6-0.4,3.6,1.7,3.3c2-0.3,2.7-3.1,3-4.4
					c0.4-1.2,1.2-3,0.9-4.2C270.3,460.1,270.2,459.3,269.3,459.7z"/>
				<path id="path3686-3-7-4_1_" d="M270.6,346.7c-1.2-2.4-2.3-5-4.1-6.4c-1.7-1.3-3.2-1.7-3.7,0.3s1.9,3.7,2.9,4.5
					c1,0.8,2.3,2.2,3.6,2.4C269.8,347.5,270.7,347.7,270.6,346.7z"/>
				<path id="path3686-3-7-4-5_1_" d="M247,361c0,0-5.2-4.8-7.8-6.1c-4.6-2.4-6.1-0.7-5.9,1.5c0.2,2.2,4.1,3,5.7,3.6
					c0.7,0.3,4.7,1.5,6.8,1.5C246.6,361.5,247,361,247,361z"/>
				<path id="path3686-3-7-4-5-2_1_" d="M261.3,434c-1.9,0.8-3.1,1.7-4.5,2.8c-1.3,1.1-3.7,6.2,1.2,2
					C258.6,438,259.4,437.5,261.3,434z"/>
				<path id="path2891-5_1_" d="M271.6,383.2c-11.2-5.4-34-16.8,4.3-3.2c0.7,0.3,7.9,1.6,0.5-2.1c-1.4-0.7-3.1-1.5-2.6-2.1
					c0.7-0.8,0.1-2.2-0.7-2.4c-5.1-1.3,1.1-2-1.7-3.8c-3.1-2.1-5.2-5.1-7.7-7c-15.5-12.6-12.9-20.8,3.3-3.6c1.5,1.5,3.3,0.9,6.1,2.4
					c1.5,0.9,3.3,3.6,5.2,5.6c0.8,0.9,2-1.2,1.3-2.2c-5.2-8.9-0.1-5.9,3.6-1.8c2.7,3,2-0.4,3-0.1c1.3,0.4,2.2,2.4,2.4,2.6
					c3,2.5,4.1-0.2,2.6-1.4c-2-1.4-0.1-2,0.6-2.4c0.6-0.4-6.5-7.8-3.3-8.1c3.3-0.4,1.4-2.2,0.7-2.8c-6.9-6.3-7.5-18.4,2.4-5.7
					c1.5,2,2.8,4.7,4.5,7.9c0.5,0.9-0.3,4.6,2.9,2c0.5-0.4,0.5-0.3,0.8-0.5c0.7-0.4,1,2.5,1.6,3.3c0.6,0.8,2,2.5,2,1.5
					c0.1-0.9,1.2-1.7,1.5-1c4.2,8.9,2.6-0.7,3.2-0.7c2-0.3-2.1-8.1,2.2-4.8c0.3,0.2,1.7-0.5,1.7-1.5c0.8-16.8,6-18.7,4.3-0.9
					c-0.1,0.6-0.6,1,1.2,1.8c0.6,0.2,2.5-0.1,1.7,1.6c-0.9,2,0.7,7.3,2.2,1.9c0.4-1.2,2.2-5.9,2.8-1.6c0.1,0.9,0.6,6.5,2.3,2.2
					c13.9-33.3,20.1-31,5.5-1.2c-4.3,8.6,1,4.6,1.8,3.5c1.5-2.1,7.1-11.7,7.1-7.1c0,0.2-0.7,0.9-0.7,1.3c0.1,1,1.2,1.9,2.3,0.1
					c4.4-7,7.5-7.5,7.1-4.8c-0.4,2.6,2.2-0.2,3.4-1.6c1.4-1.7,2.5-3.4,3.8-4.6c6.8-5.9,11.8-5,4.4,3.5c-1.4,1.6-4.4,2.6-6.5,5
					c-2,2.3-4.7,3.5-5.8,6.4c-0.4,1-4.9,4.1-0.8,3.2c0.7-0.1,0.6,0.9,0.9,1.3c0.9,1.3,1.4,1.5,3.2-0.2c10.3-9.6,16.9-2.5-3.2,7.5
					c-1.9,0.9-10,8.9-2,4.4c0.7-0.4,3-0.4,1.2,1.8c-0.6,0.7-8.6,6.8,2.8,1.4c1.1-0.5,1.6-0.1,2,2.3c0.5,3.3,6.2-2.1,7.8-2.6
					c11.2-3.6,15.9,4.1-5.2,5.5c-5.2,0.4-3.5,1.8-1.6,2.2c6.2,1.4-2.4,3-3.3,3.2c-4,0.9-8.8-0.7-8.4,2.1c0.4,2.7,3.3-1.2,8.1,0
					c0.9,0.2,5.5,3.6-3.3,3c-1.7-0.1-3,2.2,3.5,2c3.3-0.1,4.1,2.5-1,1.9c-1.5-0.2-6.6-0.4,3.3,2.6c46.2,13.8,20.6,14.4-2.2,7.2
					c-1.6-0.5-13.5-1.5-2.6,2.7c2,0.8,4.6,2.8-1,2.6c-2.3-0.1-5.7,1.2,0.3,3c2.9,0.9,7.5,3.7,0.4,2.6c-4.6-0.7-3.1,2.2,0.5,3.5
					c11.4,3.8,19.6,14.1,3.9,8.6c-1.3-0.4-2.8-1.4-4.2-2.5c-4.4-3.3-6.8-3.9-5.7-1.5c0.3,0.6,3.3,2.7-1.8,0.7
					c-6.7-2.5,0.4,3.4,2.1,5.2c1.7,1.8,12.8,10.2-1.9,3.7c-0.9-0.4,7.6,6.8,1.4,4.7c-0.9-0.3-0.8,1.4-0.4,1.8
					c3.8,3.8,3.5,9.9-3.8,1.3c-1.2-1.4-1-3-2.9-1.8c-1.2,0.7-2.2-1.7-3.2-3.2c-3.3-5-10.4-13.3-3,0.2c2.5,4.5-1.1,4-2.6,2
					c-7.4-9.6-5.6-2.9-3.3,2.4c0.4,1-2.5,0-2.7,0.9c-0.1,0.9,1.2,5.9,3.4,8.8c5.1,6.3-1.4,20-7,2.8c-0.8-2.4-0.2-6.7-1.2-10.4
					c-0.4-1.2,0.1-3.3-0.7-4.6c-1.4-2.2-4.4-3.4-2.6,4.6c0.2,0.9-0.4,0.7-0.9,0.3c-0.9-0.7-3.6-1.7-2.2,0.7c3,5.4-3.5,12.9-4,3.8
					c-0.1-2.4,0.4-2.8,0.4-4.2c0-0.5-0.7-1.8-0.4-3c1-3.9-2-5.4-2.4-0.7c-0.6,7.5-3.2,0.4-3,1.5c1.3,11.5-7.3,13.7-3.8-0.2
					c0.2-0.9-0.5-2.1-0.3-3.1c0.6-2.8,0.6-6,0.3-8.7c-0.5-4.7-1.9-7.7-2.4-3.3c-0.1,1.2-0.9,3-1.2,5.5c-0.2,1.3-2.2,1.3-2.4,0.3
					c-0.4-2.9-1.5-3.8-2-1.5c-2.2,9.3-8.6,19.3-6,4c0.1-0.9,0.1-2,0.5-3c3.2-7.7-2-1.5-2.3-0.4c-2.8,6.9-4.2,1.3-2.2-2.8
					c2.9-5.7,2-4,2-4.3c0.7-1.5,0.4-2.8-0.9-1c-1.2,1.5,0-1.7-1.5-0.3c-0.9,0.8-3,3.3-4.4,4.5c-1.5,1.3-2,0.4-1.2-0.7
					c1.3-1.7-0.4-2.5-1.3-0.1c-0.2,0.6-1.1,1-1.8,1.6c-5.6,4.4-4.1-0.3,0.7-4.3c0.8-0.7,1.7-1.3,2.8-1.8c0.4-0.1,2-2.5,0.8-2.3
					c-4.9,0.9,0.5-1.6,0.9-2.2c0.9-1.2,2.9-1.7,3.5-2c1.4-0.5,3.1-0.7,4.4-1.5c3.7-2.1-7.6,1-4.6-2.2c8.5-9.1-0.4-4.6-5.9-0.6
					c-8.6,6.5-23.9,2.7-1.7-3.2c4.3-1.2,6.1-2.5,1.5-2.4c-0.1,0-1.5-0.3-2.6,0.3c-3.2,1.7-7.4,0.6,2.4-2.2c0.7-0.2,6.9-2.9-0.9-2.2
					c-1.5,0.1-2.6,0.7-3.5,1c-4.7,1.8-2.2-2.7,1.1-3.6c1.6-0.4,2-4.4-1.6-4c-2.1,0.3-5-1.1-7.5-1.2c-2.2-0.1-4.4,0.1-5.8,0.2
					c-15.1,1.2-11.2-10.3,9.4-6.5c2.8,0.5,10.2,3.3,7.8-1.7C269.1,384.8,271.6,384.3,271.6,383.2L271.6,383.2z"/>
			</g>
		</g>
	</g>
</g>
</svg>
